<?xml version="1.0" encoding="UTF-8"?><svg id="b" xmlns="http://www.w3.org/2000/svg" viewBox="0 0 225.4054 225.4045"><g id="c"><rect x="197.7525" y="83.5355" width="3.423" height="3.423" transform="translate(-15.6412 57.2705) rotate(-15.7306)" fill="#034694" stroke-width="0"/><polygon points="196.166 106.1966 202.7497 100.9395 208.3408 100.2428 208.398 100.2351 208.4278 100.2311 208.423 100.2022 208.4162 100.145 208.194 98.4918 208.1869 98.4348 208.1832 98.4062 208.1546 98.4102 208.0976 98.4178 202.6877 99.0919 194.7506 95.6277 194.6571 95.5874 194.6098 95.5664 194.6169 95.6177 194.6299 95.7187 194.8754 97.549 194.8802 97.581 194.8825 97.5963 194.8972 97.6026 194.9267 97.6159 200.9767 100.2428 195.8227 104.2994 195.7972 104.3204 195.7842 104.3306 195.7861 104.3468 195.791 104.3785 196.0262 106.1405 196.0404 106.2417 196.0472 106.2922 196.0869 106.2601 196.166 106.1966" fill="#034694" fill-rule="evenodd" stroke-width="0"/><polygon points="197.6338 108.2053 197.5289 112.5993 208.8238 112.8558 208.8814 112.8575 208.9108 112.8583 208.91 112.887 208.9086 112.9445 208.868 114.611 208.8672 114.6683 208.8666 114.698 208.8377 114.6972 208.7802 114.6958 197.4855 114.4378 197.3806 118.8307 197.3789 118.8882 197.3784 118.9177 197.3494 118.9168 197.2919 118.9151 195.7654 118.8803 195.7079 118.8786 195.6793 118.878 195.6801 118.8491 195.6815 118.7927 195.9338 108.1676 195.9355 108.11 195.9361 108.0811 195.965 108.0811 196.0217 108.0828 197.5493 108.1177 197.6066 108.1191 197.6352 108.1202 197.6352 108.1489 197.6338 108.2053" fill="#034694" fill-rule="evenodd" stroke-width="0"/><polygon points="195.6396 121.0904 195.0548 126.0057 195.0477 126.0627 195.0446 126.0913 195.0735 126.0953 195.1311 126.1012 196.4395 126.2506 196.4954 126.2566 196.524 126.2597 196.5271 126.2311 196.5342 126.1744 196.7182 124.6298 206.7565 125.7713 206.5725 127.3159 206.5657 127.3726 206.5623 127.4021 206.591 127.4052 206.6485 127.4114 207.957 127.5605 208.0128 127.5668 208.0417 127.5699 208.0457 127.541 208.0525 127.4845 208.6373 122.5687 208.6435 122.5123 208.6469 122.4837 208.618 122.4805 208.5613 122.4735 207.2529 122.3249 207.1962 122.3181 207.1675 122.315 207.1644 122.3436 207.1573 122.4003 206.9731 123.9449 196.9356 122.8034 197.119 121.2588 197.1258 121.2021 197.1289 121.1735 197.1003 121.1704 197.0427 121.1633 195.7351 121.015 195.6784 121.0082 195.6498 121.0048 195.6464 121.0335 195.6396 121.0904" fill="#034694" fill-rule="evenodd" stroke-width="0"/><path d="M206.4716,132.5211l.0006.0006v.0009c.0164.0365.0329.0754.0499.1173.0161.0394.0317.0791.0482.1205.3549.93.4138,1.8612.3254,2.863-.0204.2268-.0451.4473-.0746.6616-.1102.7889-.3038,1.5497-.5964,2.2946-.0706.1786-.146.3566-.2259.5327-.0802.1771-.1664.3554-.2579.5337-.0908.1769-.188.3555-.2912.5363l-.0187.0318-.0093.0164-.0187-.0014-.0372-.004-2.137-.2097-.0559-.0063-.0286-.0022.0023-.0287.0045-.0569.0108-.1179.0017-.021.0006-.0099.0079-.0077.0156-.015c.1468-.1429.2871-.2928.4198-.4487.1332-.1562.2588-.3201.3776-.4902v.0009l.0014-.0023v-.0008c.0343-.0482.0669-.0964.0981-.1437.0317-.0479.0629-.097.0946-.1474.396-.6353.7059-1.3598.8964-2.0861.0876-.3353.1465-.6647.1746-.9861v-.002c.0071-.0726.0124-.1432.0161-.2106.004-.0683.0071-.1361.0094-.2036.0102-.3441-.0068-.661-.0513-.9504l-.0006-.0009c-.0085-.0558-.0187-.1108-.0295-.1655-.0102-.0533-.0218-.1063-.0351-.159-.0658-.2665-.1599-.5072-.2804-.72-.0839-.1474-.1763-.2787-.2772-.3921-.468-.5249-1.2013-.7035-1.8899-.5536h-.0011c-.0295.0063-.0572.0134-.0836.0202-.0264.0076-.0527.0164-.0791.0258-.1321.0447-.2472.1085-.345.1902l-.0005.0005c-.0204.0173-.0397.0343-.0584.0516-.0179.0162-.0374.0346-.0567.055-.0964.0984-.1871.216-.2719.3509l-.0031.0037c-.2452.3932-.4022.87-.5357,1.3133l-.0094.0318-.0272.0924-.0349.123c-.0405.1434-.0785.2917-.1156.4439v.0017l-.0108.042-.0249.1-.0267.1009c-.0419.1639-.0862.3317-.1335.5026l-.0434.1545-.028.1015-.0505.1749c-.0348.1179-.0697.2378-.1063.3571v.0009l-.0008.0008-.0108.0349-.0045.0147-.0204.0621-.021.0621c-.2821.8348-.7112,1.6688-1.4267,2.2088l-.0006.0005c-.0456.0343-.0924.0678-.1392.0987-.0464.0309-.0946.0615-.1434.091-.2508.1465-.5201.2562-.8107.3277h-.0023c-.0552.0138-.1119.0263-.1703.0371-.0581.0108-.1171.021-.1752.0286-.3036.0414-.6276.0445-.9709.0111h-.0045l-.0085-.0014-.0638-.0071h-.0008l-.063-.008c-.1063-.0139-.2103-.0323-.3121-.055-.0348-.0085-.0708-.0164-.1071-.0266h-.0009l-.0541-.0136-.0539-.0156c-.0697-.0204-.138-.0428-.2041-.0669l-.0062-.0023c-.0969-.0357-.1916-.0754-.2849-.1204-.0915-.0443-.1828-.093-.2704-.146-.4487-.2727-.8345-.6599-1.1554-1.1625l-.0017-.0023-.0006-.0014v-.0011l-.0008-.0006-.0357-.0567-.0349-.0575c-.0601-.0995-.1151-.2002-.1664-.3028v-.0008l-.0006-.0009-.0294-.0606h-.0009l-.0289-.0613c-.43-.9246-.5358-1.9661-.4465-2.9772v-.0062c.0054-.059.0111-.1202.0179-.184.0057-.0584.0128-.1188.0196-.1817.1576-1.3442.587-2.7482,1.2554-3.9387l.0187-.0326.0094-.0162.0187.0014.0371.004,2.016.1978h.0009l.0558.0063.0289.0023-.0022.0289-.0057.0567-.0102.117-.0014.0213-.0014.0108-.008.0076-.0161.0156c-.1112.1057-.2192.2222-.3246.3481-.1043.1259-.2058.2616-.3039.4068v.0008l-.0014.0014c-.0272.0403-.0544.0822-.0816.125-.0264.0411-.0528.0848-.0791.129-.5553.9255-.9017,1.9724-.9973,3.0481v.0046l-.0005.0022-.004.0522-.0037.0504c-.0065.0868-.0102.1715-.0124.2529v.002l-.0009.0484-.0008.0485c0,.0822.0017.1627.0045.2407v.0014c.004.0785.0102.1562.0173.2313.0076.0757.017.15.0295.2222.0598.3719.1723.7019.3384.991l.0009.0006.0008.0017c.0216.038.0451.0751.0683.1125.0241.0366.0482.0723.0729.1058.3455.4736.8121.6925,1.3994.7049.1747.004.3362-.0099.4845-.0419l.0071-.0017c.0269-.006.0527-.0122.0776-.0184.0264-.008.0536-.0162.0814-.025.1366-.0456.2602-.1094.3722-.1899l.0099-.0071v-.0008c.703-.5321.9816-1.9406,1.2081-2.7925l.0168-.0589v-.0009l.0714-.2608v-.0011l.0703-.2497.0507-.1718.0465-.1553v-.0009l.0474-.1497c.0683-.2182.1352-.4186.2004-.6009l.0008-.0026.0023-.0053c.0227-.0621.0473-.125.0723-.188.0255-.0629.051-.1227.0768-.1817.1327-.3027.2803-.5754.4428-.8169v-.0006h.0005c.0318-.0473.0644-.0941.0973-.1392.0326-.0442.0666-.0887.1-.1312.4139-.5173.9108-.8666,1.5679-1.0142l.0022-.0009v.0009c.0545-.0125.108-.0224.1616-.0318.0553-.0094.1111-.0173.1661-.0241,1.804-.212,3.3338.7532,4.049,2.3856Z" fill="#034694" fill-rule="evenodd" stroke-width="0"/><path d="M192.7726,144.4474l-.0178.0113c-.0148.0093-.0304.0204-.0482.0329-.0162.0116-.0318.0229-.0474.0348l-.0039.0032-.0224.017-.0218.0178c-.3416.2804-.5709.667-.7665,1.0576l-.0366.0754c-.0612.1296-.1225.2696-.184.4184l-.7106,1.7459,4.3092,1.8459.6041-1.4834.0008-.0014.0403-.1009c.0142-.0366.0275-.0714.0382-.1003.0644-.1693.1194-.334.1662-.4924v-.0006c.0102-.0334.0187-.0646.0255-.0924.0088-.0306.0164-.0601.0249-.0901.0357-.1409.0644-.2764.0862-.4079l.0054-.0349v-.0006c.0039-.0289.0079-.0567.011-.0808.0023-.0263.0054-.0535.0077-.0799.0519-.654-.1894-1.2954-.6591-1.7521l-.011-.0108c-.0165-.0156-.0335-.0311-.0505-.0465-.0178-.0155-.0357-.0311-.0544-.0467-.0919-.0763-.1956-.1505-.3107-.222l-.0023-.0008v-.0009c-.0235-.0139-.0476-.0278-.0722-.0428-.7702-.4541-1.5693-.6551-2.3001-.172h0ZM204.6569,144.3422l-.8192,2.0115-.01.0249-.0048.013-.0133.0037-.0264.008-6.2526,1.8739-.8396,2.06,4.6258,1.982.0522.0221.0263.011-.0107.0264-.021.0521-.6316,1.5492-.0215.0536-.0108.0272-.0272-.0117-.0539-.0226-11.832-5.0701-.0519-.0224-.0258-.0107.011-.0264.0207-.0522,1.3281-3.2629.0031-.008.0005-.0005c.0205-.0508.0409-.099.0601-.1446.017-.0411.0349-.0833.0528-.1242l.0076-.0195c.017-.0388.0366-.0825.0601-.1358.0216-.049.0417-.095.0612-.1361h-.0008l.0023-.0036c.0297-.0652.0584-.1273.0861-.1857.0281-.0576.057-.1165.0865-.1772,1.3666-2.7334,4.7591-3.5986,6.6175-.5193l.0017.0031.0005.0006v.0009l.0233.0388v.0008l.0232.0394c.3722.6526.5463,1.3879.5533,2.1442l6.8435-2.1277.1156-.0357.059-.0187-.0233.0567-.0456.1125Z" fill="#034694" fill-rule="evenodd" stroke-width="0"/><polygon points="198.8243 158.3706 194.8025 165.6443 194.7739 165.6959 194.7597 165.7211 194.7342 165.7066 194.6835 165.6771 194.6829 165.6771 183.6014 159.2005 183.6014 159.1997 183.5535 159.1719 183.5294 159.158 183.5427 159.1331 183.5697 159.084 187.5915 151.8103 187.6192 151.7582 187.6343 151.7327 187.6598 151.7483 187.7102 151.7777 187.7102 151.7769 189.0213 152.5434 189.0692 152.572 189.0941 152.5862 189.0802 152.6108 189.053 152.6599 185.8839 158.3924 188.771 160.0787 191.9378 154.3505 191.9665 154.2992 191.9806 154.2737 192.007 154.2881 192.0566 154.3179 193.3673 155.0841 193.4164 155.1124 193.4405 155.126 193.4272 155.1518 193.4002 155.2006 190.2308 160.9322 194.1951 163.2487 197.3619 157.5202 197.3908 157.4689 197.4047 157.4434 197.4305 157.4581 197.481 157.4876 198.7917 158.2541 198.8405 158.283 198.8654 158.2969 198.8512 158.3215 198.8243 158.3706" fill="#034694" fill-rule="evenodd" stroke-width="0"/><polygon points="175.6434 170.517 188.8129 174.3463 188.8129 174.3455 188.8503 174.3571 188.8696 174.3625 188.8815 174.3469 188.9053 174.3152 190.2705 172.5316 190.296 172.4982 190.3093 172.4817 190.2969 172.4647 190.2739 172.4307 182.7077 161.2809 182.6637 161.2151 182.641 161.1825 182.6169 161.2143 182.5688 161.2772 181.4709 162.7107 181.446 162.7441 181.4326 162.7603 181.4443 162.7782 181.4675 162.8116 188.0331 172.3499 176.737 168.9866 176.6991 168.9758 176.6803 168.9696 176.6679 168.9857 176.6438 169.0169 175.6001 170.3812 175.5995 170.3812 175.549 170.4481 175.5232 170.4822 175.5635 170.4938 175.6434 170.517" fill="#034694" fill-rule="evenodd" stroke-width="0"/><polygon points="173.6742 171.9669 170.1564 175.5468 170.1153 175.5888 170.0943 175.6097 170.1162 175.6299 170.1598 175.6696 171.1131 176.5531 171.1534 176.5905 171.1746 176.6098 171.1942 176.5897 171.2327 176.55 172.3408 175.4227 179.6528 182.1955 178.5487 183.32 178.5076 183.3619 178.4866 183.3829 178.509 183.403 178.5523 183.4433 179.5054 184.3263 179.5465 184.3645 179.5669 184.3833 179.5867 184.3628 179.6255 184.3234 183.1425 180.7436 183.1839 180.7016 183.204 180.6806 183.1822 180.6602 183.1388 180.62 182.1861 179.737 182.1447 179.699 182.1237 179.6803 182.1044 179.7007 182.0656 179.7401 180.9581 180.8677 173.6461 174.0941 174.7505 172.9701 174.7916 172.9282 174.8117 172.9072 174.7902 172.8874 174.7466 172.8468 173.7938 171.9638 173.7527 171.9258 173.7326 171.9066 173.7122 171.9273 173.6742 171.9669" fill="#034694" fill-rule="evenodd" stroke-width="0"/><polygon points="175.5924 188.1173 173.9466 189.4258 173.9188 189.4476 173.9049 189.4587 173.8885 189.4516 173.8568 189.4369 162.6273 184.2656 169.2215 193.0726 169.255 193.1177 169.272 193.14 169.2496 193.1573 169.206 193.1922 167.9635 194.1792 167.9179 194.2158 167.8946 194.2342 167.8765 194.2104 167.8408 194.1628 160.24 184.0133 160.2074 183.9694 160.1904 183.9467 160.2122 183.9286 160.2556 183.894 162.3163 182.257 162.3444 182.2352 162.3583 182.2235 162.3747 182.2315 162.4056 182.2459 172.6291 186.9551 166.627 178.9396 166.5938 178.8945 166.5765 178.8727 166.5984 178.8548 166.6426 178.8208 167.885 177.833 167.9309 177.7967 167.9542 177.778 167.9729 177.8021 168.008 177.8485 175.608 187.9986 175.6414 188.0428 175.6582 188.0663 175.6366 188.0833 175.5924 188.1173" fill="#034694" fill-rule="evenodd" stroke-width="0"/><path d="M153.0082,197.4175v.0006l.0272.0465h.0006l.0272.0468c.0474.0807.0947.1581.1412.233v.0008l.0283.0442.027.0434c.0481.0754.0963.1491.1451.2205v.0009c.049.072.0978.1429.146.2112.0507.0697.0995.1374.1485.2026,1.0692,1.4148,2.5291,2.3117,4.3988,1.9857l.0173-.0034.0085-.0014.0085-.0014.0048-.0009.0037-.0005h.0009l.0357-.0071.0371-.0071c.0641-.0125.1276-.0255.1897-.0405l.0022-.0006.0366-.0088.0374-.0091c.0635-.0164.1281-.0343.1942-.0527l.0014-.0008c3.6683-1.0687,5.275-3.9907,3.1218-7.7066l-3.7891-6.5392-.0278-.0482-.0138-.0247-.025.0139-.0488.0264-1.4966.8169-.0511.0281-.0263.0139.0144.0255.0298.0513,3.8321,6.6146c.2135.3688.4179.7478.5732,1.1452.3433.8717.3509,1.8335-.244,2.5985h-.0006l-.0009.0023h-.0008v.0009c-.0187.024-.0386.0487-.0595.0737-.021.0255-.0428.0507-.0647.0745-.1125.1259-.2406.2463-.3844.362l-.0008.0006-.0006.0008c-.0289.0233-.0575.0451-.0856.0669-.8005.6063-1.9352,1.0879-2.9327.8334-.15-.0383-.2959-.0919-.438-.1602l-.0017-.0008-.0017-.0009-.0014-.0005c-.0215-.0102-.0459-.0224-.0706-.0352-.024-.0125-.0481-.0255-.0722-.0388h-.0009l-.0201-.0114-.0204-.011c-.0318-.0184-.0618-.0366-.0916-.0544v-.0015l-.0076-.0039c-.688-.4309-1.1532-1.1214-1.5517-1.8085l-3.8532-6.6504-.028-.0473-.0136-.025-.0253.0139-.0487.0267-1.4964.8169-.0513.0281-.0264.0139.0156.0255.0289.0513,3.7894,6.5392.0008.0017Z" fill="#034694" fill-rule="evenodd" stroke-width="0"/><polygon points="139.1803 207.8091 144.0507 206.36 144.1066 206.3435 144.1352 206.335 144.1259 206.3073 144.1089 206.2511 143.7208 205.0283 143.7035 204.9744 143.695 204.9475 143.6678 204.9551 143.6142 204.9716 142.0798 205.428 139.104 196.0507 140.6347 195.5957 140.6906 195.5784 140.7192 195.5699 140.7101 195.5421 140.6928 195.486 140.3048 194.2637 140.2875 194.2104 140.279 194.1832 140.2517 194.1908 140.1982 194.2073 135.3268 195.6555 135.271 195.6725 135.2432 195.681 135.2514 195.7091 135.2696 195.7641 135.6576 196.9872 135.6741 197.0417 135.6834 197.0686 135.7104 197.0601 135.7642 197.0439 137.2978 196.5878 140.2741 205.9654 138.7429 206.4206 138.687 206.4371 138.659 206.4453 138.6675 206.4734 138.6856 206.5295 139.0737 207.7515 139.0737 207.7524 139.091 207.8059 139.0995 207.8331 139.1264 207.8252 139.1803 207.8091" fill="#034694" fill-rule="evenodd" stroke-width="0"/><polygon points="134.8549 208.9358 124.9243 210.593 124.8678 210.6023 124.8384 210.6068 124.8341 210.5782 124.825 210.5207 124.5858 208.9891 124.5827 208.9693 124.5804 208.9591 124.5858 208.9497 124.5966 208.9319 130.8348 198.3901 123.5058 199.6132 123.4488 199.6229 123.4193 199.6283 123.4154 199.5985 123.4063 199.5421 123.1773 198.0752 123.1679 198.0193 123.1639 197.9904 123.192 197.9859 123.2478 197.9765 132.7 196.4002 132.7567 196.39 132.7861 196.3851 132.7898 196.4141 132.7995 196.4716 133.0322 197.9632 133.0353 197.9842 133.037 197.9944 133.0322 198.0029 133.0214 198.0207 133.0214 198.0216 126.7143 208.6144 134.5969 207.2997 134.6545 207.2895 134.6831 207.2849 134.6879 207.3136 134.6964 207.3711 134.9263 208.8372 134.9348 208.8939 134.9388 208.9219 134.9107 208.9265 134.8549 208.9358" fill="#034694" fill-rule="evenodd" stroke-width="0"/><polygon points="120.3746 210.7333 118.2492 210.7038 118.2149 210.7032 118.1979 210.7032 118.1903 210.6876 118.1747 210.6573 112.3795 199.6577 112.2165 210.5331 112.2148 210.5904 112.2143 210.6193 112.1854 210.6188 112.1287 210.6179 110.5243 210.5961 110.4667 210.5947 110.4381 210.5947 110.4389 210.5657 110.4398 210.5082 110.6274 197.9731 110.6286 197.9159 110.6291 197.8872 110.658 197.8872 110.7156 197.8881 113.3756 197.9252 113.4096 197.9258 113.4269 197.9258 113.4354 197.9414 113.451 197.9708 118.7243 207.9868 118.8737 198.0882 118.8743 198.0307 118.8743 198.002 118.9032 198.002 118.9604 198.0029 120.5649 198.0253 120.6224 198.027 120.651 198.027 120.651 198.0556 120.6502 198.1131 120.4617 210.648 120.4608 210.7055 120.46 210.735 120.4313 210.7344 120.3746 210.7333" fill="#034694" fill-rule="evenodd" stroke-width="0"/><path d="M100.4675,204.4412l2.9577-5.4607,1.2815,6.0509-4.2392-.5902h0ZM96.0137,208.9707l1.8079.2517.0397.0062.0199.0029.009-.0184.0193-.0349,1.73-3.2321,5.4187.754.7325,3.5742.0076.0397.0046.0204.0204.0029.0394.0054,1.7263.2401.0813.0119.0414.0059-.0085-.0411-.0178-.0799-2.8353-13.0575-.0079-.0397-.0045-.0193-.0202-.0031-.0394-.0054-2.2685-.3164-.0389-.0053-.0198-.0023-.0096.017-.019.034-.0003.0012-6.4721,11.7612-.0405.0731-.0199.0366.0417.0054.0825.0116Z" fill="#034694" fill-rule="evenodd" stroke-width="0"/><polygon points="87.44 206.9198 92.3579 208.2314 92.4123 208.2462 92.4403 208.2532 92.448 208.226 92.4636 208.1708 92.8094 206.9377 92.825 206.8818 92.8332 206.8529 92.8046 206.8461 92.7485 206.8314 91.2022 206.4189 93.8554 196.9628 95.404 197.3756 95.4587 197.39 95.4862 197.3971 95.4935 197.3702 95.5091 197.3149 95.8547 196.0816 95.8708 196.0257 95.8788 195.9977 95.8499 195.99 95.7937 195.9753 90.8759 194.6637 90.8215 194.6498 90.7943 194.6418 90.7863 194.6693 90.7707 194.7243 90.4252 195.9574 90.4096 196.0132 90.4014 196.0419 90.4297 196.0492 90.4859 196.0637 92.0322 196.4761 89.3789 205.9331 87.8304 205.5192 87.7759 205.5048 87.7482 205.498 87.7405 205.5252 87.7249 205.5805 87.3791 206.8127 87.3791 206.8135 87.3635 206.8694 87.3558 206.8974 87.3836 206.9051 87.44 206.9198" fill="#034694" fill-rule="evenodd" stroke-width="0"/><path d="M55.9536,187.5102l-.0019.0025-.0006.0006-.0003.0008-.0363.0417-.0354.0414c-.0627.0731-.1205.1428-.1738.208l-.0005.0009-.0006.0008-.0315.0389-.0326.0402c-.0558.07-.1102.1398-.1624.2092l-.0006.0012h-.0005c-.0511.0669-.1021.136-.1523.2058-.0496.07-.0972.1383-.1428.2058-.237.3509-.432.695-.5845,1.0312l-.0031.0079h-.0006l-.0003.0017-.017.0372v.0008l-.0162.0372-.0002.0008c-.0273.0626-.0539.1287-.0791.197h-.0006l-.0006.0026-.0144.0388-.0136.0388h-.0006c-.0232.0666-.0445.131-.0638.1951l-.0003.0019-.0031.0097c-.0192.0657-.0365.1312-.0527.1973-.0156.0649-.0298.1309-.0419.1961-.3901,2.103,1.1902,3.9334,2.8879,4.9513l.0011.0008h.0006c.0419.0256.0853.0514.1292.076.0412.0235.084.0474.1293.0715,1.0729.574,2.283.7472,3.4546.3526l.0011-.0006c.0462-.0156.0907-.0312.1338-.0473.044-.0165.0882-.0343.1327-.053.9873-.4085,1.8263-1.2116,2.5089-1.9959l4.9754-5.7175.0388-.0442.0193-.0227-.023-.0187-.0456-.038-1.3133-1.0791-.0425-.0352-.0218-.0178-.0187.0212-.0366.0417-5.0324,5.7838-.0008.0006c-.0329.0382-.0641.0737-.093.1054-.032.0366-.0626.0709-.091.1021-.1553.1715-.3024.324-.441.458l-.0199.0196c-.0887.0853-.1749.163-.2579.2344-.089.0763-.1747.1435-.2557.2019h-.0009c-.0229.0172-.0462.0326-.0691.0481-.0216.0148-.0454.0304-.0698.046-.4192.2687-.9136.4617-1.4156.4821l-.0068.0009c-.0354.0014-.072.0023-.1086.0014-.0371,0-.0737-.0014-.1097-.004-1.1123-.0629-2.4148-1.0357-2.9282-2.0344l-.0005-.0017c-.0139-.0263-.0272-.0541-.0408-.0836-.0128-.0281-.0253-.057-.0375-.0848-.3016-.7251-.1661-1.5018.1922-2.1781.0494-.0924.1055-.1871.1673-.2849.0623-.0989.1309-.199.2052-.3024h.0003l.0008-.0006c.0202-.0281.042-.0576.0638-.087.021-.0281.0434-.0576.0675-.0893.1179-.1537.25-.3144.3951-.4813l5.0593-5.8139.0388-.0445.0193-.0227-.0227-.0193-.0459-.0371-1.3127-1.0794-.0431-.0349-.0218-.0179-.0187.021-.0363.042h-.0006l-4.9751,5.7175Z" fill="#034694" fill-rule="evenodd" stroke-width="0"/><polygon points="48.6445 168.283 47.6396 166.9326 47.6065 166.8875 47.5897 166.8651 47.5665 166.8813 47.5209 166.9133 42.465 170.4598 38.7972 165.528 43.8491 161.9839 43.8976 161.9504 43.922 161.9326 43.9044 161.9091 43.869 161.8617 42.8644 160.5107 42.8315 160.4657 42.8142 160.4433 42.7915 160.4594 42.7456 160.4914 32.2753 167.8357 32.2265 167.87 32.2021 167.887 32.22 167.9111 32.2554 167.9585 33.2603 169.3097 33.2932 169.3537 33.3102 169.3764 33.3332 169.3602 33.3791 169.3285 37.4173 166.4955 41.0851 171.4281 37.0505 174.2576 37.002 174.2919 36.9777 174.3092 36.9955 174.3325 37.0307 174.3798 38.0353 175.7308 38.0356 175.7308 38.0687 175.7759 38.0852 175.7982 38.1084 175.7821 38.154 175.7503 48.6247 168.4058 48.6729 168.3718 48.6972 168.3545 48.6797 168.3304 48.6445 168.283" fill="#034694" fill-rule="evenodd" stroke-width="0"/><polygon points="29.6459 163.9662 25.2541 155.1555 25.2292 155.1059 25.2167 155.0804 25.2417 155.0674 25.2907 155.0416 26.6933 154.3 26.7112 154.2907 26.7205 154.285 26.7301 154.2875 26.75 154.2915 38.632 156.6332 35.3883 150.126 35.3633 150.0755 35.3506 150.0506 35.3758 150.0376 35.4251 150.0112 36.7673 149.3014 36.7671 149.3014 36.8192 149.2742 36.8456 149.26 36.8586 149.2864 36.8847 149.3394 41.0652 157.7251 41.0896 157.775 41.1026 157.7997 41.0774 157.813 41.0278 157.8394 39.6624 158.5616 39.6442 158.571 39.6352 158.5755 39.6247 158.5741 39.6048 158.5701 27.654 156.1808 31.1426 163.1798 31.1672 163.2294 31.18 163.2549 31.1553 163.268 31.1054 163.2946 29.7632 164.0036 29.7113 164.0316 29.6853 164.045 29.6717 164.0183 29.6459 163.9662" fill="#034694" fill-rule="evenodd" stroke-width="0"/><path d="M22.2301,148.1916c-.8223-1.5066-1.2129-3.2896-1.017-5.0031v-.0034l.0005-.0006v-.0008l.006-.0513.0065-.0505c.0111-.0876.0235-.174.038-.2585v-.0009l.0085-.0496.0094-.0487h-.0006c.9706-5.1968,9.2962-6.986,12.2077-2.528.4836.7402.8376,1.63,1.061,2.67l.0003.0008.0002.0006c.0097.0473.0205.0972.0301.1483.0108.053.0198.1034.0283.1499.0457.2554.0808.5179.1061.7852v.0009c.0045.0504.0087.1023.0133.1559.0037.0527.0073.1048.0102.1576h.0006c.0702,1.161-.0743,2.2643-.3527,3.403l-.0085.0331-.004.0173-.017.0046-.0343.0079-1.9768.4626-.0573.0125-.0283.0071-.0066-.0287-.0124-.0569-.0318-.1489-.0042-.0195-.002-.0102.0042-.0094.0091-.0178c.0241-.0488.0499-.1038.0774-.1653.2582-.5692.4881-1.1563.6284-1.7666.224-1.0142.1939-2.0222-.0229-3.0316l-.0003-.0009-.0009-.0048-.0031-.0153-.0025-.0102c-.3994-1.8045-1.66-3.1751-3.697-3.3786l.0012.0014-.0587-.0062-.0006-.0006c-.0907-.0079-.1817-.0133-.273-.0161-.0912-.0034-.1848-.0049-.2803-.0034-2.4548.0326-5.2495,1.2991-5.6934,3.9897v.0017h-.0003c-.0139.0853-.0252.1718-.0346.26-.081.7781.0411,1.5735.2665,2.3212.015.0514.0309.1027.0473.1531.2228.6925.548,1.3978.9607,1.9979l2.9313-.6857-.69-3.2117v-.0008l-.0119-.055-.0059-.0281.028-.0062.0548-.0125,1.4649-.3433.057-.013.0289-.0071.0059.0298.0122.0564,1.0557,4.9133.0119.055.0062.028-.0278.0063-.0547.013-5.3793,1.258h-.0003l-.036.0088-.0184.0037-.0113-.0147c-.4964-.6469-.9318-1.334-1.3216-2.0501Z" fill="#034694" fill-rule="evenodd" stroke-width="0"/><polygon points="18.1091 135.1735 17.765 133.1385 17.7647 133.1377 17.7591 133.1034 17.7562 133.0864 17.7701 133.0756 17.7976 133.0543 17.7982 133.0543 27.8892 125.3914 16.8746 127.3448 16.8174 127.3547 16.789 127.3601 16.7834 127.3315 16.7737 127.2739 16.5144 125.7373 16.505 125.6806 16.5005 125.6525 16.5283 125.6471 16.5838 125.6378 29.2907 123.3842 29.3477 123.3743 29.3766 123.3686 29.3817 123.3973 29.391 123.4548 29.8216 126.0034 29.8276 126.0377 29.8307 126.0556 29.8165 126.0655 29.7887 126.0874 20.6014 133.0617 30.6255 131.2841 30.6825 131.2739 30.7114 131.2685 30.7162 131.2971 30.7259 131.3547 30.9855 132.8914 30.9952 132.948 31 132.9761 30.9716 132.9815 30.9158 132.9908 18.2092 135.2444 18.1522 135.2543 18.1239 135.2597 18.1182 135.2305 18.1091 135.1735" fill="#034694" fill-rule="evenodd" stroke-width="0"/><path d="M21.3625,117.783l5.904-2.2938-6.0594-1.8584.1554,4.1522h0ZM16.2558,121.62l-.0666-1.772-.0011-.0414-.0006-.0201.019-.0077.0383-.0141,3.4937-1.3385-.1979-5.3048-3.5835-1.0735-.0391-.0119-.0199-.0059-.0006-.021-.0022-.0414-.063-1.692-.0031-.0808-.0017-.0402.0391.0113.0774.0244,13.0734,4.0796.0386.0116.0198.0063.0003.0209.002.0403.083,2.2232.0012.0397.0011.021-.0193.0079-.0377.0147-12.7326,5.042-.0754.0295-.0377.0156-.0017-.0414-.0032-.0805v-.0008Z" fill="#034694" fill-rule="evenodd" stroke-width="0"/><polygon points="29.2952 107.4382 29.5095 105.7842 29.5174 105.7267 29.5209 105.698 29.4919 105.6941 29.4347 105.687 23.2509 104.9355 24.0347 98.8986 30.2204 99.6509 30.2763 99.658 30.3046 99.6611 30.3086 99.6325 30.316 99.5758 30.5306 97.9217 30.5379 97.8651 30.5419 97.8356 30.5133 97.8325 30.4557 97.8245 30.4552 97.8245 17.6451 96.2677 17.5887 96.2606 17.5606 96.2575 17.5569 96.2856 17.5493 96.3423 17.3347 97.9963 17.3273 98.0538 17.3231 98.0825 17.3523 98.0862 17.4101 98.0932 22.3486 98.6936 21.5646 104.7306 16.6243 104.1302 16.5679 104.1234 16.5396 104.1191 16.5359 104.148 16.5288 104.2047 16.314 105.8588 16.3063 105.916 16.3026 105.9449 16.3318 105.9489 16.3891 105.9557 29.1994 107.5128 29.2552 107.5196 29.2839 107.5238 29.2876 107.4949 29.2952 107.4382" fill="#034694" fill-rule="evenodd" stroke-width="0"/><path d="M204.368,63.9329c-.265.2418-.3727.2084-.6879.358-.3246.1534-.741.3975-.9593.4491-.2982.0705-.6055.1031-.9059.1646-.7753.1596-.9927.6928-.9377,1.4029.0351.4618-.0474,1.0888-.322,1.351-.4352.4153-1.088.6987-1.6736.8033-.3447.0618-.4907.0479-.8207.1086-.7999.1471-.6227.2568-.1848.716.4153.4352.8122.7152,1.0786,1.2045.3331.6114.0442,1.0752-.5848,1.2713-1.1996.3745-2.8701-.5695-4.0598-.6661-.566-.0462-1.1491-.2792-1.682-.4675-.3028-.1065-.3799-.1825-.6554-.2916-.6165-.2433-.6701-.0315-.5661.5142.0527.2752-.3058.9348-.5173,1.1364-.2237.2137-.4827.3149-.6574.4813-.8243.7872.2801,1.3629.8034,1.9108.3838.4023.6556.957.2092,1.3842-.3821.3651-1.2566.3529-1.7209.1491-.4519-.1979-.9219-.3509-1.3825-.5301-.7662-.2985-1.3757.0782-1.6367.8249-.1772.5077-.5505.8853-1.0664,1.0253-.3518.0958-.5363.1576-.9023.1324-.2276-.0156-.3393.0283-.5295-.0496-.7174-.2951-1.3705-.5616-1.929-1.1654-.392-.4235-.6633-.7438-.8161-1.3246-.0793-.3059.0349-1.8196-.1071-1.9687.0791-.0756-.025-1.2475-.0009-1.4833.0661-.6486.4553-.7662.9593-.8147.7747-.0754,1.2912-.1406,2.0795.0655.3852.1006.8679.2497,1.1647.3662.6044.2387,1.8389.8858,2.4234.2962.1386-.1394.3498-.6001.4203-.8197.1514-.4703.3277-.7739.7694-.8785.5748-.1375,1.2172-.1794,1.8039-.2157.15-.0091.309-.0187.4553-.0204.8348-.0066,1.7728.5034,2.5906.6905.7211.1664,1.2455.4688,2.137.5927.2081.0289.5947.0556.8697.0176.7531-.1035.2851-.5287-.0287-.7946-.4543-.3846-1.0794-.771-1.6137-1.0536-.9834-.5204-1.8629-1.2801-2.7964-1.8859-.4589-.2976-.7174-.4051-1.1129-.7223-.6398-.513-1.2044-.93-1.7745-1.527-.517-.5411-.9348-.7855-1.3719-1.2268-.1015-.1021-.1965-.2101-.2849-.324.0184-.0182.038-.0366.0536-.051-.0188-.0196-.0366-.0386-.0514-.0539.2118-.174,1.0157.2035,1.4103.288.2664.057.5652.1565.8013.292.2421.1392.3308.1831.5358.3486.1094.0885.2098.1486.3027.1951.5888.2967.9862.625,1.5837.9331,1.0355.5349,2.1161,1.9744,3.3027,2.1456.3359.0487.7064-.0576,1.2291-.0701.2894-.0065.6205-.0436.9008-.1148.4675-.1179,1.4505-1.1287,1.2861-1.6625.0859-.1386-.0096-.371-.1369-.5649-.1732-.2639-.1956-.3705-.5613-.4524-.1825-.0408-.9668.0547-1.3971.1074-.8425.1038-.8853.0558-1.9398.0635-.2197.0011-.4379-.0094-.6214-.087-.1604-.0683-.2894-.1307-.4093-.2067-.3554-.225-.6281-.5298-.5697-.9827.0669-.5202.4558-.9616.7642-1.3746.0774-.1031.172-.2154.3095-.3469.0352-.0335.07-.0664.1043-.0995.3666-.3495.396-.578.6256-1.0678.1789-.381.3708-.1248.612.0992.3705.3441.7147.659.8411,1.292.0621.3096-.0312.8102-.0893,1.1262-.0388.2172-.034.4567.3053.6355.2959.1562.8952.1316,1.3326.1222.6553-.0144.9178-.2418,1.58-.3982.345-.0811.7123-.1503,1.0315-.2373.6562-.1789,1.1438-.4941,1.7138-.6962.2617-.0927.5947-.1327.9091-.102,1.0313.1009,1.3816,1.1715.7659,1.7336Z" fill="#034694" fill-rule="evenodd" stroke-width="0"/><path d="M180.6012,63.396c.0332-.4827.5837-.9669.9743-1.1987.2718-.1608.5562-.2455.8909-.3748.5947-.2299.9179-.4983,1.5676-.6151.0955-.0167.1848-.036.2642-.0638.5125-.1834.4342-.2585.6593-.0226-.004.0036.0085.0626.0278.1547.0249.1182.0607.2906.0896.468.034.216.0581.4397.0354.582-.0533.3498-.2203.7449-.3773,1.1455-.1718.439-.4504,1.0732-.6973,1.485-.2634.4383-.7773.3612-1.2107.3495-.3617-.0099-.8836-.1099-1.0964-.3333-.2858-.2993-.5165-.464-.8215-.7832-.22-.2299-.3317-.4201-.3059-.7932Z" fill="#034694" fill-rule="evenodd" stroke-width="0"/><path d="M188.5054,61.3429c-.0451-.2968.1902-.6174.4597-.9014.2787-.2942.5264-.4555.851-.7118.3333-.2622.6636-.4666,1.0468-.6942.1284-.0757.2617-.1539.404-.2381.2245-.1338.4232-.2574.6111-.39.6049-.4278.9264-.7824,1.1514.2477.0715.3277.0942.6996.0794,1.0052-.0147.3053-.0572.6338-.1173.8864-.0941.4011-.2158.7086-.4371.9969-.6602.8561-2.0849,1.6237-3.1349.9831-.3713-.2265-.8495-.7614-.9141-1.1838Z" fill="#034694" fill-rule="evenodd" stroke-width="0"/><path d="M173.571,55.2626c.1488-.3334.4278-.3546.4799-.7248.0349-.2503.15-.4692.1982-.7144.0377-.1916.0365-.3741.0898-.5779.0576-.2169.1367-.3325.188-.5675.0527-.2404.0249-.514-.0091-.7331-.0125-.0791-.0181-.1513-.0057-.1695-.0924-.0626.0706-.4484.142-.5026.0856-.0643.1701-.0314.366.0703.309.1613.5698.4981.7455.8184.1894.3444.434.714.6693,1.0672.1879.2807.2474.4612.3262.8689.0443.2327.1055.6667.0995,1.0278-.0096.4774-.1788.9836-.6636,1.2047-.089.0408-.1978.0766-.3336.1077-.4071.0942-1.0593-.1539-1.4272-.3549-.2478-.1352-.4853-.2545-.7147-.4283-.134-.1015-.2242-.2276-.1505-.392Z" fill="#034694" fill-rule="evenodd" stroke-width="0"/><path d="M164.2547,48.769c-.0791-.1375-.1398-.2497.1715-.5032.2681-.2171.8762-.6142,1.1783-.6423.7827-.072,1.3434-.1908,2.1028-.4107.1358-.0391.2432-.0916.3373-.1514.4895-.3095.8158-.4915,1.3516-.7095.4388-.1783.7905-.3543,1.2455-.5034.3178-.1041.4504-.309.4062-.6361-.0264-.1979-.1179-.2515-.2483-.3867-.1579-.1647-.2407-.3625-.3044-.6273-.0678-.2874-.1126-.5068-.2532-.7665-.074-.1369-.1375-.3053.042-.4904.0893-.0921.1754-.0813.267-.0312.2514.1358.5202.1568.7594.3201.362.2463.8209.2426,1.2132.4181.4479.2007.3283.0272.8952.0076.6406-.0215.9899.1579,1.3581-.3818.1616-.2378.574-.3555.7968-.5995.3906-.4272.8501-.7889,1.2455-1.2067.1951-.2058,1.0321-.7577,1.0421-.8654.0504-.0735.1003-.1466.1499-.22.15-.2194.1097-.3158.1406-.5973.0173-.1564-.0201-.2233.1018-.3336.3642-.3288.8566-.0967,1.1174.2407.2058.2678.4603.4212.6299.7287.0566.1027.1318.3751.1723.6361.1142.7441-.1125.6412-.4731,1.2779-.1001.178-.2072.3631-.3487.5712-.2656.39-.7103.714-.6862,1.2073.5201.3548,1.0879.2769,1.6058.8223.2313.244.5576.3075.8178.6131.2438.2846.3951.4176.7152.6355.261.1778.4456.4853.4674.8708.0318.5599-.0094.9236-.3353,1.1722-.1369.1051-.3031.089-.4646.1309-.4023.1049-1.8669-.172-2.2099-.216-.375-.0473-.7076-.2301-1.0803-.2789-.9612-.125-2.0874-.5899-3.0084-.3988-.4978.1032-1.0063.1647-1.4553.4289-.3206.1896-.4269.4558-.7988.5873-.675.2375-1.3825.2353-2.0713.4005-.8929.2152-1.7532.161-2.6331.3203-.6951.1259-.879-.0138-1.491.0995-.2778.0516-.529.0684-.8139.0284-.3634-.0505-1.2384-.1168-1.4558-.32-.0723-.0672-.1401-.1381-.199-.2407Z" fill="#034694" fill-rule="evenodd" stroke-width="0"/><path d="M155.3091,42.8656c-.1352-.1962-.2208-.3864-.4-.5477-.1088-.0975-.2647-.3336-.3146-.4725-.0434-.1216-.0746-.2506-.1111-.3748-.0604-.2029-.1259-.4022-.2211-.5935-.0848-.1701-.216-.4312-.4286-.4581-.0893-.0114-.2532.0003-.4125.0088-.1522.0079-.4031.0379-.5102-.0125-.0689-.0323-.1383-.0646-.2072-.097-.0709-.0334-.1041-.0158-.1423-.0039-.042.0141-.1769-.0063-.2143-.0238-.0272-.0122-.0576-.0462-.1469-.1457-.0728-.0822-.1451-.167-.1374-.1843-.0837-.0394-.2157-.5519-.1939-.5975.0473-.1009.1675-.1021.2863-.1225.1678-.0306.2531.0119.4048-.0354.0303-.0094.0606-.0261.0907-.0457.2968-.1904.4101-.2038.5958-.5986.0564-.1205.1644-.3889.2974-.4164.0365-.0077.083.0076.159.0232.2339.0488.4615.1052.6928.163.3883.0964.5312.1043.9031-.0014.6523-.1871,1.4632-.436,1.9414-.9448.1854-.1976.3371-.2534.4644-.5241.1933-.4116-.2166-.8972-.2929-1.3043-.1366-.7307-.2701-.9586-.5737-1.599-.1329-.2803-.1491-.4997-.2378-.8532-.0907-.358.0133-.5437-.3339-.6534-.3206-.1023-1.0996.1579-1.4349.2429-.1129.0284-.2384.0862-.3549.1378-.1755.0777-.4085.1545-.6577.2256-.5437.1554-1.1004.2512-1.6441.4017-.3617.0995-.7083.1959-1.0482.36-.2611.1247-.438.2582-.5647.4516-.1692.2593-.2732.5658-.4393.8339-.1849.2982-.3396.6792-.5009,1.0021-.2628.5249-1.0758,1.3047-1.4911,1.6432-.3897.3186-.9464.7359-1.449.8649-.2625.0674-.347.2035-.5023.3035-.2585.1676-.4762.0562-.7362-.0252-.0901-.0283-.2044-.0555-.3155-.0935-.1987-.0683-.5264-.2483-.4116-.5001.0258-.0564.0817-.1131.1429-.1666.1981-.1727.3053-.2038.5803-.1928.0737.0028.1491.0142.212-.0133.3469-.1537.8144-.6486,1.1228-.8819.3316-.2508.6656-.6905.8427-1.0692.1069-.2285.7265-.9261.6733-1.2226-.025-.1349-.2308-.106-.3068-.0828-.0683.0205-.1366.072-.2347.0942-.2344.0521-.5025.0433-.7259.1298-.1786.0691-.3436.1394-.5321.1769-.3322.066-.4005.1168-.6415.2982-.0541.0411-.1156.0813-.2049.1377-.1613.1024-.3665.08-.5335.0015-.2361-.1103-.3424-.0477-.479-.1115-.0403-.0189-.0808-.0379-.1205-.0566-.1551-.0732-.3005-.146-.2251-.3056.0505-.1072.1846-.1848.3166-.2478.1594-.0757.3334-.2018.4777-.3064.22-.1565.451-.2897.6942-.4053.2973-.1406.6012-.1922.8852-.3184.216-.0952.243-.155.5072-.1366.1017.0065,1.0275-.294,1.1471-.3747.0448-.0309.0961-.0709.1506-.1097.1134-.0808.2058-.1055.2834-.1287.26-.0774.5857-.6883.7005-.9318.0192-.0425.0394-.0853.0598-.1278.1343-.286.3277-.6718.3036-.9454-.0085-.0958-.1063-.1579-.2347-.2112-.4207-.1743-.8501-.2922-1.2121-.462-.5233-.2458-.5862-.0947-.8671-.8751-.0213-.0586-.0539-.1791-.0919-.29-.0941-.2783-.1499-.3376.0924-.6117.0576-.0643.1281-.1139.2197-.1326.25-.0522.5615-.1837.8147-.0771.3183.134,1.0329.1034,1.3892.1275.042.0029.9077-.1017.9511-.1247.2293-.1202.2307-.3974.3534-.6605.1174-.2477.3496-1.0046.5678-1.1239.218-.1196.2872-.093.3983-.3297.0813-.1749.3192-.1939.4785-.119.2874.1343.426.1944.4085.5609-.0054.1126-.042.434,0,.5347.0875.2097.1907.2602.4152.1655.4357-.1837.6727-.1655,1.1245-.1446.2608.0128.2228.1667.1911.3796-.0709.4615-.1987.9598-.4728,1.3493-.07.1-.1727.1754-.2775.2353-.1117.0635-.1724.0901-.2299.2106-.0743.1598-.2328.1684-.3719.2534-.1661.1029-.4907.1916-.7229.3007-.2072.0978-.5442.4553-.6344.65-.0915.1959-.1817.3923-.2718.5885-.0505.1103-.1803.3832-.212.5822-.0638.4031.1834.3116.3753.2501.5116-.163,1.15-.2107,1.692-.3399.4969-.1188,1.0125-.2322,1.5071-.3512.4598-.1103.504-.1049.8286-.3135.4178-.2693.5737-.5009.8705-.8717.22-.2755.3952-.591.4978-.9289.0808-.2633.2407-.5153.4397-.703.2335-.2211.388-.472.6514-.6676.3353-.2491.6491-.6332.9558-.9286.2361-.2265.2219-.2786.5156-.4754.3946-.2636.4397-.322.9281-.3739.1281-.0141.2545-.0076.3554.0431.3785.19.6316.4286,1.0781.4318.1933.0017.2982-.0457.504-.0539.5281-.0224.8983.0278.7684.6352-.0362.1721-.1031.1486-.1751.3019-.1321.2818-.2107.3682-.4411.5877-.2361.2233-.3929.3095-.5358.6131-.2486.5298-1.1973,1.3623-1.7138,1.6401-.2826.1525-.6191.2395-.8824.4303-.2064.1502-.3045.3002-.4813.4663-.0678.0638-.1469.1301-.2237.1871-.1553.1173-.4992.2265-.576.3912-.0258.0544-.0575.1134-.0882.174-.1661.3371-.0805.6466.0145.9987.1199.4427.3569.9054.555,1.3186.3456.722.7067,1.8482.6687,2.6504-.0414.8655-.5663,1.2932-1.0973,1.8644-.3231.3481-.7186.4943-1.0414.7846-.618.5562.0402,1.061.5116,1.4644.2322.1993.4164.4019.5179.6953.1236.3583.0842.4663-.0643.7818-.1593.3408-.3419.6001-.5769.8963-.1032.1285-.3835.2597-.5335.3076-.2052.0655-.2554.1233-.3954.2781-.142.1559-.3095.2673-.5309.2344-.1522-.0221-.1749-.083-.2682-.1899-.1312-.1508-.3019-.2906-.4215-.4417-.1664-.21-.3447-.4807-.4969-.6995Z" fill="#034694" fill-rule="evenodd" stroke-width="0"/><path d="M130.7928,36.5877c-.0567-.0644,0-.1418-.0116-.2909-.0125-.1494-.0459-.2449-.0133-.3739.0691-.2758.1885-.534.2576-.8092.1367-.5392.3762-1.0602.5128-1.6022.222-.8762.4819-1.6279.6591-2.4752.1485-.7109.2594-1.3714.4544-2.1427.1825-.7217.1499-1.0758.2599-1.6923.0516-.2869.15-.5372-.1428-.6114-.264-.0669-.4403.0056-.7158.1587-.5567.3104-1.1027.6333-1.6464.9644-.517.3149-1.4156.4053-2.0072.2517-.2602-.0675-.3798-.5757-.4558-.8153-.2231-.6998.4924-1.9196.8201-2.5449.2973-.5686.6233-1.1733.8113-1.7646.0955-.3016.2446-.4839.1133-.8694-.0464-.1389-.1964-.2647-.3004-.3872-.3175-.3713-.0615-1.0545.0465-1.4808.0924-.3668.2834-.7534.4464-1.0996.2378-.502.574-.9555.7092-1.489.1055-.4207-.0224-.739.0125-1.1344.021-.2387.2622-.4363.4782-.5808.4023-.2693,1.1733-.3252,1.6433-.2067.3197.0814.4379.1755.5751.5417.29.7682-.4121,1.1744-.6211,1.7646-.0867.2457-.2406.462-.3838.6925-.2233.3611-.3047.7702-.5952,1.0655-.0964.0975-.1911.1914-.2518.4295-.083.3288-.2219.3359-.0085.6443.1421.2052.3408.2081.4567.4249.1823.3436.0774,1.0959.0037,1.37-.1398.5221-.4734.8875-.764,1.317-.1352.1998-.3449.4969-.3551.7157-.0318.6701,1.5137.017,1.7271-.0164.8473-.1341,1.0517-.4281,1.175-.8595.1054-.373.0986-.6202.1958-1.0046.1474-.5811.2719-1.0735.4326-1.7107.1622-.6432.2594-1.025.4269-1.69.1035-.4079.1772-.6993.3005-1.1874.1057-.417.3418-.7121.4575-1.1716.0839-.3305.2974-.4504.3875-.8082.0527-.2086.1916-.4572.4683-.4753.1613-.0111.2307-.0814.358-.0896.1247-.0085.2358.0071.3594-.0513.2625-.1233.25-.1905.4374-.1585.1474.0253.1542.1574.2149.3039.0482.1159.0669.2421.0411.345-.0916.3611-.1483.6959-.2149,1.0205-.0258.1272-.053.2525-.0847.3772-.091.3606-.129.7234-.2345,1.143-.2633,1.0397-.3061,2.1248-.566,3.1532-.0794.3158-.1594.6313-.2396.9482-.0992.3929-.0371.561.3677.5896.4028.0289.9433-.4328,1.2214-.6494.3014-.2356.3589-.5281.455-.9105.0451-.1783-.0023-.2971.0482-.4524.0536-.1655.021-.3583.2012-.4484.201-.1009.2461-.4456.5193-.0734.0335.0459.1245.2933.1455.3611.1831.6015.1434,1.0264.1924,1.6353.0916,1.135-.8798,1.3388-1.633,1.834-.5108.3362-1.0786.4723-1.5554.8785-.0683.0584-.1383.142-.2021.2333-.8634,1.2455-.9853,3.128-1.3836,4.7052-.1553.6145-.3495,1.3824-.5062,2.0027-.0343.1338-.0545.3016-.1486.4076-.2228.2528-.3362.5306-.5371.809-.216.3005-.2659.5088-.4584.8118-.0839.1318-.1794.2472-.2611.3586-.208.2838-.3943.6489-.5536.9644-.1434.286-.3345,1.0312-.7733.9204-.0388-.0099-.0768-.0196-.1148-.0292-.1012-.0253-.1173.0411-.216.0896-.1856.089-.2902.0918-.4371-.0757Z" fill="#034694" fill-rule="evenodd" stroke-width="0"/><path d="M122.0145,30.3806c-.1746-.468-.0822-.8367.0383-1.3152.0737-.2923.0263-.6211-.3674-.5182-.1911.0499-.3835.1638-.559.2863-.4156.2908-1.7062.4839-1.4825-.402.0615-.2401.4255-.7174.6423-.928.5987-.584.9839-1.4196,1.5531-2.0455.3144-.3455.5448-.5457.6832-.9289.1227-.3396.3495-.493.4263-.7997.0794-.3121-.3742-.2239-.538-.1717-.6914.2211-1.3326.3347-2.0271.5037-.4881.1185-.9921.3191-1.508.2491-.4091-.0552-.7376.1593-1.1257.0615-.2681-.068-.8092-.4189-.8404-.7423-.0544-.5704.6882-.6112,1.1276-.7212.2996-.0743.6741-.2968.9831-.3492.5133-.087.9141-.131,1.4079-.3087.639-.2296,1.3737-.2843,2.0361-.4932.3938-.1239,1.2518-.4128,1.4225-.8473.1306-.3294.1873-.4516.4728-.6996.1417-.123.4708-.1511.4745-.1661.5865.1482,1.279-.595,1.8329-.6395.2282-.0181.4584-.1814.6863-.1239.1865.0474.5227.0672.504.3235-.0162.2222-.0108.3458-.1015.5941-.2123.5768-.5423.9556-.9695,1.3793-.4626.4595-.9782.6426-1.1608,1.3655-.0785.3092-.0674.4799-.1374.754-.1608.6384-.4884,1.0179-.6245,1.5557-.3654,1.4479-.6148,2.9225-.9791,4.3645-.1026.4064-.2577,1.1134-.6857,1.2546-.5536.182-.9799.0535-1.1843-.4916Z" fill="#034694" fill-rule="evenodd" stroke-width="0"/><path d="M124.4809,16.8169c.0924-.3651.0646-.5403-.0442-.9111-.0884-.2999-.2058-.2829-.1531-.5944.0244-.1392.0956-.307.2237-.3796.1003-.0581.3807-.0978.4691-.0751.0255.0122.0947.0068.1834-.0076.0527-.0097.1125-.0219.1746-.0366.6599-.1596.5996-.4771,1.2858-.1508.0732.0346.1469.0703.2387.1063.9045.3574.8011.7778.7739,1.4734-.0083.2223-.0015.4085-.1738.6523-.032.0448-.0697.0836-.1111.1145-.1738.1264-.3938.093-.6032.0391-.2982-.0765-.5383-.0453-.8535.1242-.3263.1752-.9219.2684-1.2884.176-.2905-.0737-.2001-.22-.1219-.5306Z" fill="#034694" fill-rule="evenodd" stroke-width="0"/><path d="M99.6996,31.9717c.0014-.0442.0751-.0983.0768-.1409.8807.0264,1.7969-.5303,2.4299-1.0717.8617-.7365.9844-1.2002,1.4649-2.1096.2137-.4033.432-.7781.4553-.7772.0022-.0905.0045-.1752.0068-.2594-.1772-.612-1.1489-.7231-1.6577-.7384-.5015-.0153-1.2705.0317-1.7142-.0448-.6108-.1049-1.1066-.2052-1.6367-.3614-.2134-.0627-.4365-.1596-.4334-.2685-.1831-.0054.0065-.214.197-.3155.2523-.1346.4694-.2942.7773-.4637.2004-.11.358-.2135.5536-.3475.3957-.2693,1.0247-.6857,1.5633-.8697.3467-.1182.5904-.1089.9023-.2815.2752-.1514.5748-.4535.7591-.7112.4929-.6914.2602-.6239.0535-1.2957-.2001-.6509-.2508-1.101-.2318-1.7439.0278-.9204-.4524-.8994-1.1333-.9196-.5556-.0164-1.1101-.0331-1.6614-.0493.0003-.0241.0011-.0419.0014-.0601-.1587-.0051-.3469-.1341-.4943-.3041-.3204-.3697-.4272-1.0009-.3918-1.48.0482-.6432.4357-1.1923,1.1872-1.1699.4172.0119.9391.0678,1.5103.1012.3917.0224.6519-.1581,1.0709-.1459.2826.0087.5499-.1443.8254-.2767.9335-.4482,1.7626-.3181,2.2536.8186.0589.1369.1088.2869.1491.4295.1366.4853.0425.8286-.07,1.2007-.2245.7419-.2665,1.2462-.2889,2.0169-.0125.4167-.0249,1.5865.3294,1.9981.2577.2994.9598.3393,1.5724.3368.7463-.004,1.1724-.0156,1.8173.5105.6857.5601,1.1171,1.4471.5162,2.2493-.2121.284-.5318.5632-1.0645.6593-.6709.1216-1.3186.3164-1.8235.8244-.2701.2724-.3107,1.1148-.3657,1.1134-.032,1.0704-.3843,1.8921-1.0306,2.7159-1.2005,1.5332-3.6556,1.4462-5.3946,1.4122-.5466-.0105-1.0843-.0496-1.0806-.1806Z" fill="#034694" fill-rule="evenodd" stroke-width="0"/><path d="M85.6304,38.7199c-.7339-.2401-1.3017-.6372-1.7575-1.2864-.1485-.2117-.2786-.443-.4941-.593-.4331-.3016-1.1355-.3512-1.4867.1126-.1245.1644-.2024.2579-.3002.3223-.2498.1638-.5959.2741-.9301.3251-1.1032.1681-1.7875-.9377-2.3729-1.7028-.5612-.733-1.0539-1.3263-1.2597-2.2334-.0382-.1706.0355-.4292.1789-.5885.1664-.1837.0711-.3401.142-.523.0816-.2111.3991-.4056.4921-.5731.1318-.2376.4048-.3524.6712-.315.3317.0684.6602.3192.783.2914.2041.2231.2287.5108.2928.7952.1018.4484.2971,1.1554.6851,1.4139.2716.1803.5644.4606.5987.6128.1193-.0272.2767.1846.3974.402.2081.3742.5103.7821.9054.1893.0825-.0331.1216-.2846.2152-.4561.1556-.286.1907-.1306.0754-.549-.0607-.2189-.1384-.4411-.2027-.4264-.057-.2514-.362-.2412-.5638-.3058-.0766-.025-.1514-.0768-.1826-.2155-.0918-.4059.1897-.4152.1701-.7698-.0145-.2543.0609-.4853.0969-.7053.0394-.2401-.0011-.4022-.1768-.5604-.1922-.1724-.2455-.231-.4649-.0479-.1304.1091-.3577.1485-.5179.1797-.2339.0456-.4808.0482-.5227-.1375-.0131-.0567.0207-.121.072-.1667.0762-.0688.4666-.5451.4643-.5561.5624-.4235.9896-.9125,1.7053-1.1254.3461-.1029.6492-.1973.9839-.2866,1.3054-.3483,2.9824-.449,4.229.2067.2115.1111.3958.3197.3422.5732-.0442.2072-.178.6366-.3359.7996-.4859.4986-.6543,1.3558-.9508,1.9556-.1768.3583-.5045.8646-.6647,1.2354-.178.4133-.4907.7662-.5547,1.1744-.0451.2888.0314.5408-.0182.8084-.0102.0547-.0422.2565-.0388.4263.0093.5497.9675.641,1.3603.6064.5089-.0443.737-.559,1.1447-.783.4561-.2503,1.1214-.5193,1.6543-.5207.4938-.0008.4836.4918.521.8204.0235.2066-.1179.3339-.1829.5179-.0941.2664-.0586.2225-.2874.4249-.2735.2426-.6939.642-.7648.7571-.1519.2446-.5743.5145-.8285.5905-.9919.2962-1.4057.1845-2.3219-.1137h0ZM75.2462,31.0865c.2107.0978.3606.0116.5939-.0411.2089-.0471.3847-.2883.4938-.449.2701-.3992.2446-.7915.303-1.234.0221-.1638.1579-.4563.2075-.6658.0332-.1389.049-.2211.1117-.3552.4238-.904.9862-1.5999,1.6773-2.393.2511-.2877.3982-.7078.7236-.9507.0097-.0026.6852-.1245.5412.0694.1735.4728.2214.7288.2715,1.0763.0349.2449.0814.5253-.0226.7209-.1032.1933-.6693.6162-.6597.8773.0066.1825.1097.2032.2577.1681.0451-.0108.0933-.0349.1562-.0961.1071-.1038.085-.1865.2795-.2239.0473-.0088.0984-.0071.1769.0042.0243.108.1244.068.0558.2341-.1429.3473-.1601.3912-.0606.7665.2449.0241.2276.1378.5646.0865.1809-.0281.3424-.1055.5213-.146.3095-.0703.3251-.29.3353-.6171.0049-.1366-.0005-.2123.0145-.3478.0366-.3229.6922-.2687.9312-.324.1896-.0442.2925-.0417.4464.1117.1764.1754.0766.3413-.0394.4955-.0175.0964-.0088.4138.1423.3795.0049.0213.1021.0074.1911-.015.2951-.0734.4623-.3263.7203-.4552.1649-.0822.2664-.2081.4889-.2591.1219-.0272.3238-.3348.2608-.4867-.0844-.205-.1431-.3838-.189-.5848-.2308-.2917-.7044-.3274-.802-.4-.4084.0924-1.6004-.1698-1.9114-.4195-.2922-.2344-.3319-.4354-.4056-.8189-.0737-.3864-.2177-1.135.0584-1.4559.1369-.1588.3807-.2974.6077-.3886,1.2532-.5029,2.6178-.8402,3.9411-1.0891.2398.0672.6426-.1602.7319.3149.0419.2214.1655.2282.2925.2027.1142-.023.5227.0493.5389-.0984.0473-.0275.3937-.4385.3982-.559.1358-.0258.1182-.6698-.0258-.7109-.0552-.2449-.4283-.4717-.6227-.5808-.2724-.1539-.7974-.2767-.9556-.2308-.2279.0664-.2506-.0561-.4856-.0368-.9584.0779-2.0214.3917-2.8511.885-.1729.1023-.2899.2557-.4932.3019-.3883.0881-1.2552.2814-1.6395.1573-.2642-.0851-.2988-.4261-.353-.6633-.0269-.1194-.0541-.2396-.081-.3589-.1231-.5428.3676-1.1324.7815-1.4275.3325-.2364.5953-.4893.7682-.775.3058-.5063.339-1.7717-.459-1.9018-.0552-.0093-.1026-.0371-.1349-.0813-.0567-.0785-.1224-.1542-.2316-.2078-.489-.241-.9527-.0964-1.4326.0672-.1894.0643-.218.0978-.4051.1757-.4685.1953-.7378.675-1.3918.9686-.083.0374-.1661.0539-.2466.0845-.1284.0485-.6477.5185-.6497.6179-.1111.1613-.2772.3059-.4314.3402-.0879.1638-.1979.2959.0354.4042.2395-.0544.5916.2526.9349.4813.3478.2314,1.0692.3161,1.18.804.1318.583.3269,1.1182.423,1.718.0768.4797-.0066.9547-.425,1.2745-.3047.2316-.6573.7741-.8915,1.0417-.1865.2132-.6426.3691-.7517.4453-.4354.3048-.7084.7753-1.2243.8731-.39.0737-.424-.4138-.6256-.629-.3699-.3951-.5587-1.0335-.6775-1.5559.1418-.078-.2063-.4536-.267-.5117-.0955-.0907-.3002-.1718-.375.0187-.0539.0125-.0859.1976-.0955.3643-.0125.2055-.0222.273-.0675.4728-.1358.5936-.2387,1.152-.3458,1.7532-.1715.961-.3246,1.8828-.3419,2.861-.0119.6798.0981,1.3459.2554,2.0404.0164-.0034.032-.0071.0539-.0119.2287.5615,1.1182.6752,1.6015.8989h0ZM83.5044,31.3147c.2974-.0304.5754-.0885.8175-.2543.1508-.1332.1684-.2838-.0893-.3918-.2789.063-.5578.1268-.8373.1897-.1001.0674-.1596.1318-.1585.1488.021.0913.0428.1879.0646.2846.0703-.0159.1302.0309.203.023Z" fill="#034694" fill-rule="evenodd" stroke-width="0"/><path d="M65.6461,44.2086c-.6156.2945-1.7861.8581-2.4933.7586-.1896-.0264-.3402-.2013-.0873-.4196.1616-.1389.2905-.2505.4408-.3804.2866-.2477.394-.4178.6817-.6655.1653-.1432.4303-.3972.4465-.635.0085-.1267-.0451-.2639-.0171-.5346.0757-.7396-.2383-1.107-.6508-1.7688-.6854-1.0996-1.4967-2.3012-2.6155-2.9929-.2157-.1332-.4278-.267-.6078-.4218-.3322-.2843-.2738-.35-.6899-.46-.1775-.0465-.3484-.0391-.3354.3523.0139.4255-.3058,1.3893-.3719,1.6263-.2049.7367-.1153,1.4079-.0773,2.1438.0258.5125.1992,1.3227.1612,1.7694-.0263.3084-.2525.6378-.4838.8376-.491.4238-.5383.4666-1.0443.37-.3274-.0627-.809-.1336-.9363-.1333-.2262.0012-.5632.0717-.8388.1378-.4938.1179-1.1205.3844-1.2472.877-.0125.0488-.0162.1001-.0119.1511.0312.3583.2982.6656.4912.9944.4111.7004.7957,1.2781.8833,2.1379.0309.3025.0354.6026.07.8487.0732.5281.152.8552.0797,1.4451-.0885.7228-.2996.8388-.709,1.3155-.3336.3887-.9805.1511-1.3031-.136-.1207-.1077-.2273-.237-.3327-.415-.1934-.3285-.1724-.5564-.3116-.9139-.3305-.8504-.7163-1.6645-1.04-2.5211-.3506-.9281-1.0576-1.8065-1.618-2.6326-.3201-.4716-.5565-.894-.8949-1.3351-.5579-.7268-1.2362-.712-.5389-1.3141.0627-.0542.1264-.1089.1899-.1636-.0215.0556.2461.0663.4354.0335.5891-.1024.8964-.1248,1.5713.1403.3379.1329.46.3827.7758.4975.6472.2361.8232-.4011,1.0653-.9219.2443-.5247.1684-.9963.1134-1.5355-.0397-.3847-.1041-.8802-.0502-1.2569.0777-.5454.5975-1.0817.9899-1.4198.2616-.2265.6168-.7643.9864-.62.3779.148.794.5338,1.0301.8983.3286.5074.487,1.5228.8445,1.9375.3557.4122.4986.0008.4073-.4252-.0791-.3711-.1967-.6948-.1534-1.0602.0491-.4147-.0609-.82-.0062-1.2191.0278-.2027.068-.4145.0624-.5123-.0698-1.1891.102-2.0435.2815-3.1923.0637-.4096.2443-1.5041.4816-1.7085.1284-.1111.7537-.2727,1.0774-.2239.6353.0947.4388.2095,1.0446.6862.2336.1837.4479.3748.5201.432.5123.4063.9598.804,1.4466,1.302.8747.8943,1.6903,1.8632,2.3944,2.8454.4504.629.5213.9437.9589,1.5628.5882.8325.9261,1.7274,1.397,2.4457.2956.4513.4864.743.2403,1.3731-.3875.9907-1.1812,1.5786-2.1019,2.0191Z" fill="#034694" fill-rule="evenodd" stroke-width="0"/><path d="M50.6526,50.8632c-.0488.0253-.0984.0445-.1508.0666-.2968.1262-.2838.0661-.5806.097-.1386.0144-.2857.0411-.3138.047-.3985.0834-.5213-.0552-.8243-.0708-.2004-.0102-.4632-.1494-.5896-.3107-.0272-.0352-.0524-.0714-.0762-.1086-.118-.1854-.3175-.7517-.2821-.9635.0267-.1601.14-.2968.1259-.4776-.0649-.8008.7614-1.6829,2.5078-1.5656.1746.0119.4907.1695.606.2812.0329-.0289.3847.3215.5488.3824.2166.0808.2177.1432.4788.1089.0487-.0068.0941-.0131.1295-.0162.131-.0105.1483-.019.2466.0952.1154.1338.1092.2192-.0087.3212-.076.0655-.152.1307-.2251.1939-.1106.0805-.5034.8096-.5794.9113.013.0153-.3447.5857-.4414.6693-.214.1845-.3801.2395-.5714.339Z" fill="#034694" fill-rule="evenodd" stroke-width="0"/><path d="M41.021,74.6961c-.3041-.3152-.686-.726-.9694-1.0914-.3731-.481-.4731-.8186-.9332-1.2492-.0145.0156-.0255.0278-.0363.0394-.2032-.2948-.5111-.3268-.7146-.4504-.0547.0581-.1055.1125-.1565.1669.0698.0647.0221.8142-.0031.9411-.0264.131-.0527.2696-.0436.3873.0257.316.3197,1.0496.06,1.3274.0845.0788-.2004.4476-.2922.5454-.1179.1264-.2358.2529-.3541.379-.0155-.0142-.0274-.0255-.0388-.0366-.1703.1823-.9453-.1355-1.1015-.2814-.1165-.1092-.2787-.2141-.2526-.3382.034-.1599.074-.1403-.0816-.286-.165-.1545-.1344-.4862-.144-.7362-.0125-.3135-.0117-.6403-.0383-.9513-.0352-.4161-.2222-.4774-.178-.9831.0351-.3982-.2461-.8013-.2889-1.2231-.0666-.6605-.2826-1.1971-.4552-1.8414-.1134-.4235-.1999-.8056-.1661-.8422-.2396-.2245-.633-1.135-.726-.6797-.267.2854-.3665.3946-.4867.756-.049.1474-.1057.373-.142.574-.0493.2718-.0675.5159-.1063.7886-.0558.3903-.051.6358-.0612.9751-.0091.2928.0005.7518.0076.8481.0139.1985.108.4567.1021.5724-.0182.373-.1576.9793-.3929,1.2673-.2599.3181-.381.58-.5607.8278-.2126.2928-.3991.5249-.7166.7599-.2299.1701-.5142.2727-.7228.3509-.6191.2319-.6242-.5017-.5976-.877.0196-.2687-.0266-.4756-.015-.7574.0187-.4462.0978-1.0259.1052-1.2084.0209-.5117.0141-1.1424.1802-1.6353.1225-.3623.1069-.9961.2237-1.3564.2001-.6191.1794-.8444.2616-1.4856.127-.9896.2631-1.8222.1092-2.8548-.076-.5119-.4547-.7472-.832-1.0999-.4277-.3996-.6021-.7083-1.0352-1.114-.3643-.3407-.4672-.5848-.7946-1.0182-.4546-.6012-.786-1.0848-1.3266-1.6319-.0703-.0717-.5303-.4822-.5907-.4187-.3782-.354-.8002-.6528-.7662-1.2466.0116-.2072-.0615-.5111-.0428-.7166.0062-.0683.0513-.188.0819-.2869.2693-.8765.7943-.4986,1.0154-.735.0416.0391.1448.0408.2605.0453.3798.0151.4527.0905.7225.3427.5743.5369,1.0925.9244,1.6779,1.4763.3772.3561.5533.6656.9102,1.0052.3007.2866.5765.5647.9904.6426.2806.0533.3923.0405.5065.0848.4618.1785,1.1016.7874,1.4253,1.1471.5026.5587.9295,1.1464,1.3895,1.7161.9173,1.1362,1.7983,2.5971,2.8738,3.6032-.0145.0153-.0252.0269-.0366.0385.8192.7659,1.3125,1.391,2.0673,2.2408.4799.5408.9196,1.0893,1.4389,1.6316.5919.6188,1.0687,1.209,1.6844,1.8352-.0188.0405.1272.1896.2888.3396.3127.2885.8005.4898.9218.9617.095.368-.1295.7461-.5638,1.2473-.4629.5346-.8929.5048-1.2226.3957-.6947-.2302-.807-.2982-1.3178-.8274Z" fill="#034694" fill-rule="evenodd" stroke-width="0"/><path d="M46.7076,62.3744c-.743.5735-1.3045,1.2498-2.2363,1.5622-.3526.1185-1.0902-.14-1.4-.3124-.1338-.0745-.2619-.1511-.3866-.2293-.3739-.2341-.7138-.4836-1.0693-.7483-.3016-.2245-.6239-.4068-.9652-.7084-.0989-.0876-.2151-.1369-.3356-.0088-.1071.1148-.0728.4816.0063.5556-.0956.1023.5777,2.5191.6188,2.7598.07.4065-.0295.7532.0388,1.1373.0901.5071.1241.9396.1406,1.423.0034.0941-.0026.195-.0428.2962-.1741.4402-.5669.3441-.9023.2525-.6503-.1774-.7197-.4079-1.0607-1.0768-.1182-.2322-.231-.5066-.1828-.5582-.0102-.0099-.2435-.6729-.3433-1.1338-.0984-.4527-.1412-.974-.1157-1.4613.0179-.3399-.0912-.8147-.117-1.1798-.0054-.0779-.0054-.1539.007-.2222.0703-.3858-.1672-.2755-.3897-.2617-.4068.0264-.3963.1109-.7254.4621-.3954.4235-1.0114.5029-1.459.0839-.4958-.4638-.7866-1.3581-.6738-2.0027.0595-.3416.1704-.684.3804-.9088.3093-.3308.4504-1.4445.5519-1.8836.1769-.7608.6438-1.294,1.3924-1.5486.5584-.1902,1.446-.0703,1.948.2345.498.3019.3858.5754.3801,1.0797-.0045.4212.2798,1.798.0147,2.0809.082.2214-.0482.6625.239.8337.1341.0805.2103.0425.2857.026.3566-.0762.8615.1523,1.1707.315.3564.1871.5449.3413.8632.5062.7265.3762,1.3841.2095,1.9023-.4002.5066-.5964.9578-1.2424,1.4933-1.8147.2041-.2186.2486-.3697.4802-.5777.5162-.4641,1.1339.9759,1.3119,1.2923.1998.3557.0088.7307-.042,1.0992-.0561.4105-.4396.7759-.7778,1.0372Z" fill="#034694" fill-rule="evenodd" stroke-width="0"/><path d="M33.6538,58.7458c-.2364-.2214-.2977-.2801-.5692-.5014-.2424-.1968-.4799-.3986-.7013-.6154-.2945-.288-.4981-.5749-.735-.8958-.1908-.2594-.3365-.5513-.406-.8444-.1471-.6205-.0918-.6483.201-1.0829.1848-.2752.3016-.5303.6143-.8217.2177-.203.4493-.3654.7591-.4584.5576-.1678,1.0499.1026,1.4.4306.2194.2049.3816.5063.3544.8634-.0233.3073-.0539.5562-.0868.8447-.0193.1693-.0198.3935-.038.5987-.0311.3518-.1774.5587-.1868.9204-.0056.2282-.1837.9516-.2489,1.143-.1329.3872-.1845.4793-.3568.4192Z" fill="#034694" fill-rule="evenodd" stroke-width="0"/><rect x="25.6469" y="83.5355" width="3.423" height="3.4229" transform="translate(-62.1131 88.469) rotate(-74.2694)" fill="#034694" stroke-width="0"/><path d="M46.4318,174.7007c1.8122-1.1781,3.5458-1.6146,5.203-1.3074,1.6568.3079,2.9866,1.2294,3.988,2.7698.6543,1.0063,1.0044,2.0732,1.0494,3.1938.0425,1.1219-.2268,2.1758-.8124,3.1603-.5828.9831-1.4244,1.8301-2.5149,2.539-1.1078.7203-2.243,1.1438-3.4055,1.2631-1.1651.1211-2.2374-.0822-3.2193-.6077-.9834-.5287-1.7805-1.2651-2.3967-2.2133-.6693-1.0293-1.0194-2.1073-1.0469-3.2392-.0311-1.1327.2492-2.1866.8371-3.1617.5856-.9737,1.3598-1.7737,2.3182-2.3967h0ZM47.3771,176.2047c-1.3164.8561-2.1211,1.882-2.4193,3.081-.2963,1.2013-.0984,2.3346.5955,3.4019.7073,1.0879,1.6705,1.7345,2.8914,1.9389,1.2208.2038,2.5358-.1483,3.9413-1.0619.8869-.5766,1.563-1.2333,2.0313-1.9644.4682-.7311.6961-1.5046.6868-2.3196-.013-.8158-.2514-1.5829-.7192-2.3023-.6658-1.0241-1.5885-1.6753-2.7714-1.9545-1.1806-.2812-2.5948.1137-4.2364,1.1809Z" fill="#034694" fill-rule="evenodd" stroke-width="0"/><path d="M72.8589,202.2988l5.3773-11.8369,4.0762,1.8518c.9207.4182,1.5974.7954,2.0311,1.1288.6077.462,1.0576,1.0089,1.3518,1.635.3824.8119.5454,1.6971.481,2.6586-.0617.9627-.333,1.9698-.8126,3.0255-.4082.8985-.8748,1.6475-1.4026,2.2456-.525.5995-1.0539,1.0539-1.5911,1.3583-.5346.3059-1.0559.5012-1.5647.5825-.5074.0854-1.069.0698-1.6818-.0456-.6152-.1168-1.279-.3384-1.9928-.6627l-4.2718-1.9409h0ZM75.0592,201.6128l2.527,1.1483c.7801.3543,1.4273.5616,1.9375.6171.51.0556.9553.0119,1.3402-.1324.5398-.2004,1.0571-.5703,1.548-1.1021.4921-.5346.9411-1.2447,1.3479-2.1404.5624-1.2373.7903-2.2811.6871-3.1292-.1051-.8524-.3968-1.5202-.8756-2.0103-.345-.3529-.9867-.741-1.9156-1.1628l-2.4883-1.1307-4.1082,9.0425Z" fill="#034694" fill-rule="evenodd" stroke-width="0"/><path d="M112.7032,0h.0026v.0015c31.1165.0014,59.2928,12.6175,79.687,33.0131,20.393,20.3936,33.0103,48.5671,33.0109,79.6816h.0017v.0077h-.0017c0,31.1159-12.6179,59.2925-33.0132,79.6869-20.3936,20.3942-48.5674,33.0109-79.6819,33.012v.0017h-.0076v-.0017c-31.1176-.0005-59.2929-12.6178-79.6881-33.0137C12.6196,171.995.0034,143.8212.002,112.707h-.002v-.008h.002c.0011-31.1164,12.6176-59.2914,33.0128-79.6861C53.4093,12.619,81.5825.0034,112.6979.0015v-.0015h.0053ZM112.1131,6.4123C53.5703,6.4123,5.8226,54.1599,5.8226,112.7022s47.7477,106.2898,106.2905,106.2898,106.2901-47.7476,106.2901-106.2898S170.6556,6.4123,112.1131,6.4123h0ZM193.7169,39.4648c5.0164,5.5469,9.4753,11.617,13.2837,18.118,1.7509,2.9885,3.3607,6.0601,4.82,9.2032,1.4584,3.1428,2.7751,6.3771,3.941,9.6922,3.8965,11.086,6.0562,22.9927,6.1492,35.3909h.0085v1.6622h-.0085c-.0876,11.7649-2.0375,23.0907-5.567,33.6912-.8829,2.6512-1.8654,5.2574-2.9401,7.8097-4.8067,11.4214-11.4998,21.8526-19.6837,30.9016,18.7809-19.1231,30.2944-44.89,30.2944-73.2299h-.0014v-.0077h.0014c-.0014-28.3414-11.516-54.1094-30.2975-73.2314h0ZM31.6899,185.9386c-1.3943-1.5423-2.749-3.1272-4.0589-4.7542-2.4591-3.0501-4.7565-6.2346-6.8794-9.5389-10.7836-16.7851-17.0943-36.7186-17.2545-58.1117h-.0102v-1.6622h.0102c.0873-11.7649,2.0347-23.089,5.5655-33.6906.8825-2.6513,1.865-5.2577,2.9396-7.8097,4.8075-11.4231,11.5007-21.8554,19.6857-30.9051C12.9064,58.5891,1.3915,84.3571,1.3912,112.699h.0015v.008h-.0015c.0012,28.341,11.5164,54.1091,30.2987,73.2316Z" fill="#034694" fill-rule="evenodd" stroke-width="0"/><path d="M112.7032,187.2151c-41.146,0-74.5137-33.3681-74.5137-74.5129S71.5572,38.1884,112.7032,38.1884s74.5132,33.3686,74.5132,74.5138-33.3683,74.5129-74.5132,74.5129h0ZM112.7032,40.8739c-26.3681,0-49.4175,14.2172-61.9106,35.4008,2.9976-4.6956,6.5563-9.0247,10.5885-12.8993,13.1338-12.623,31.2784-20.4327,51.3168-20.4339v-.0017h.0079v.0017c20.0398.0009,38.1861,7.8109,51.3207,20.4341,4.0317,3.875,7.59,8.2046,10.5874,12.9008-12.4923-21.1844-35.5425-35.4025-61.9107-35.4025h0ZM174.6085,149.1353c-2.9968,4.6933-6.554,9.021-10.5834,12.8937-13.1346,12.6232-31.2795,20.4321-51.317,20.4344v.0017h-.0071v-.0017c-20.041-.0006-38.1872-7.8118-51.3218-20.4356-4.0303-3.8732-7.5873-8.2023-10.584-12.8956,12.4937,21.1807,35.5419,35.3985,61.908,35.3985s49.4116-14.2161,61.9053-35.3954h0ZM112.7058,44.1788v.002h-.0079v-.002c-18.9151.0012-36.044,7.6737-48.4439,20.0727-12.4007,12.4013-20.0741,29.5314-20.0749,48.4475h.002v.008h-.002c.0011,18.9147,7.6742,36.0436,20.0732,48.4427,12.4008,12.4012,29.5317,20.0752,48.4487,20.076v-.0022h.0071v.0022c18.9139-.0017,36.0431-7.6736,48.4438-20.0735,12.4013-12.4007,20.0744-29.5319,20.0744-48.4483h-.0017v-.0077h.0017c-.0009-18.9142-7.6731-36.0428-20.0733-48.4427-12.3996-12.401-29.531-20.0738-48.4472-20.0747Z" fill="#034694" fill-rule="evenodd" stroke-width="0"/><path d="M101.1858,163.6368l.2608.3061c-.1381.3294-.2642.6724-.3739,1.0276-.112.3546-.2098.7149-.2951,1.0845l-.987,4.2749c-.1942.8402-.2242,1.3785-.0879,1.611.1361.2347.4748.426,1.0174.5768l-.099.4286c-.5045-.1292-.9459-.2656-1.3254-.4087-.3771-.1446-.7209-.3034-1.0313-.4797-.3546.0185-.7376.0094-1.1441-.0266-.4064-.0343-.8467-.1015-1.3161-.197l.099-.4286c.5445.1046.9294.076,1.1579-.0896.2285-.1653.4535-.7333.6778-1.7036l.7591-3.2885c.2489-1.078.3263-1.7464.2316-2.0035-.0961-.2594-.3626-.4388-.8031-.5403l-.0368-.0085.0946-.4099c.296.0425.5434.0825.7427.1179.2016.0357.377.072.527.1069.1828.0419.3583.0867.525.1338.1666.047.3242.0961.4773.1465.1582-.0552.3144-.1029.4669-.1423.1545-.0391.3067-.0703.4626-.0878h0ZM108.7027,165.36c-.3654-.0321-.6704.1337-.9198.4946-.2472.3634-.4009.8768-.459,1.5409-.0652.7469-.0028,1.3485.1891,1.8068.1899.4578.4805.7027.8685.7367.3816.0332.6999-.1355.9579-.504.2562-.3707.4147-.89.4731-1.5582.0646-.7409-.0023-1.3368-.1996-1.7866-.1967-.4502-.4995-.6942-.9102-.7302h0ZM105.567,174.0929l-.0995-.536c1.0248-.1925,1.8913-.5851,2.596-1.1821.707-.5969,1.1653-1.3161,1.3728-2.1594-.2622.1525-.5434.2577-.8433.3152-.2976.0576-.623.0709-.9717.0403-.8178-.0715-1.4723-.3838-1.9613-.9349-.4893-.551-.699-1.2132-.6313-1.9876.0777-.8881.4867-1.5971,1.2274-2.126.7407-.5293,1.6424-.7472,2.7048-.6543,1.0129.0885,1.81.491,2.3916,1.2048.5794.7157.8238,1.6049.7302,2.6716-.1301,1.4882-.7608,2.6983-1.8944,3.6301-1.1332.9317-2.6744,1.5037-4.6213,1.7183h0ZM115.1408,168.9883l.1496-3.763c.3861-.0085.7674-.0252,1.1418-.0451.3728-.0201.7407-.0462,1.1018-.0776.7906-.0692,1.3561-.1585,1.6937-.2676.3377-.1092.5891-.2668.7552-.4737l.2832.1046c-.0258.1613-.0621.3172-.1077.4655-.0477.1485-.1041.2933-.1735.4356.0555.0808.0992.1523.1281.2186.0306.0643.0485.1256.0536.1814.0176.2032-.0658.349-.2503.4382-.1846.0893-.6795.1701-1.4868.2407l-.1825.0162c-.3323.0289-.6812.0555-1.0432.0768-.3642.0212-.7619.0391-1.1934.0581l-.0501,1.4559c1.4836-.1299,2.6435.026,3.4786.4651.8351.4394,1.2935,1.1333,1.3763,2.0818.0788.8989-.2356,1.6812-.9429,2.3454-.7095.6641-1.6463,1.0474-2.8145,1.1497-.5193.0454-1.025.0017-1.5171-.1287-.4946-.1304-.9008-.3271-1.2226-.5873l.3858-.6344c.2866.1947.5792.3345.8793.4189.298.0848.6101.112.936.0834.6078-.0533,1.0854-.2872,1.4338-.7005.3464-.4149.4941-.926.4411-1.5338-.0632-.7203-.3677-1.2603-.9116-1.6205-.5434-.3583-1.2751-.4972-2.1966-.4165l-.1451.0128h0ZM127.1818,167.5307c-.3878.0896-.6483.368-.7824.8351-.1315.4669-.1142,1.0613.0527,1.7839.1537.6661.3847,1.1664.6951,1.5012.3087.3367.6497.4615,1.0233.375.3795-.0876.6375-.3504.771-.7894.1364-.438.1267-.9893-.0272-1.6552-.1715-.743-.4068-1.2915-.7092-1.6472-.3005-.3563-.6418-.4913-1.0233-.4034h0ZM128.2989,162.7937l.3175.5596c-.8609.449-1.4998,1.0242-1.9188,1.728-.4175.7016-.614,1.5273-.5873,2.4766.1981-.208.4249-.3821.6811-.5224.2566-.1409.5398-.2466.8484-.3178.8017-.1851,1.5254-.0892,2.1745.2869.6491.3762,1.0573.9318,1.2266,1.6645.2023.8771.0439,1.6812-.4757,2.4129-.5216.7319-1.281,1.2129-2.2793,1.4434-1.0395.2401-1.9486.1182-2.7315-.3657-.781-.4827-1.2915-1.2416-1.529-2.2706-.3362-1.4555-.1279-2.8122.625-4.0699.7532-1.2581,1.9701-2.2661,3.6485-3.0255Z" fill="#034694" stroke-width="0"/><path d="M100.3666,101.8353c-31.172-2.0376-50.3972,14.9247-45.6208,32.1791,3.5328,12.7613,17.4257,20.1975,31.3671,22.6993,12.9982,2.3332,27.9603,1.3697,40.8943-2.1829,18.68-5.1308,35.871-15.1507,40.4047-28.0917-11.9049,15.4803-33.7881,20.8129-51.9165,21.3852-19.1988.606-43.9073-4.1298-46.8851-22.1729-2.5259-15.3023,18.9771-23.8541,31.7563-23.8161Z" fill="#034694" fill-rule="evenodd" stroke-width="0"/><path d="M89.2851,69.9486s9.0777,2.3908,15.1364,6.5823c14.4383,9.9885,21.8209,29.4877,13.33,45.3161-4.5695,8.5181-12.8387,14.9193-21.3789,18.3787,0,0-5.1089,1.7286-8.6247,3.1703-.7739.3169,17.2907-6.2827,21.5419-17.0377,6.1976-15.6787-2.9506-34.2938-25.0271-36.4787l5.0224-19.931Z" fill="#034694" fill-rule="evenodd" stroke-width="0"/><path d="M118.1375,58.9269s12.583,6.8777,17.4566,22.6866c5.3368,16.8108-2.1194,36.5408-14.3594,47.6549-7.3698,5.9686-16.2936,9.9981-26.0263,13.3152,0,0,10.6435-5.2387,12.5166-7.0815,7.9643-4.6656,13.919-12.4702,15.9231-21.4884,2.7899-12.5509-3.0699-28.599-12.9623-36.8217l7.4517-18.2651Z" fill="#034694" fill-rule="evenodd" stroke-width="0"/><path d="M153.5913,64.7867c7.9583,19.2697,1.5194,38.321-6.4743,49.265-8.6559,11.8477-23.0896,20.4177-40.4635,25.8781,14.5619-6.6838,24.3746-15.4486,30.3333-30.9192,3.0716-7.9741,5.1214-18.3283.6146-32.4043l15.9899-11.8196Z" fill="#034694" fill-rule="evenodd" stroke-width="0"/></g></svg>